HIERARCHY
ROOT Hips
{
 OFFSET 0.000000 0.000000 0.000000
 CHANNELS 6 Xposition Yposition Zposition Yrotation Xrotation Zrotation
 JOINT Chest
 {
  OFFSET 0.000000 9.585900 0.002600
  CHANNELS 3 Yrotation Xrotation Zrotation
  JOINT Chest2
  {
   OFFSET 0.000000 9.601200 -0.005300
   CHANNELS 3 Yrotation Xrotation Zrotation
   JOINT Chest3
   {
    OFFSET 0.000000 9.561800 0.000000
    CHANNELS 3 Yrotation Xrotation Zrotation
    JOINT Chest4
    {
     OFFSET 0.000000 9.552100 0.000000
     CHANNELS 3 Yrotation Xrotation Zrotation
     JOINT Neck
     {
      OFFSET 0.000000 14.453000 0.000000
      CHANNELS 3 Yrotation Xrotation Zrotation
      JOINT Head
      {
       OFFSET 0.000000 8.936500 -0.011300
       CHANNELS 3 Yrotation Xrotation Zrotation
       End Site
       {
        OFFSET 0.000000 17.073600 -0.006000
       }
      }
     }
     JOINT RightCollar
     {
      OFFSET -2.921100 9.558500 0.000000
      CHANNELS 3 Yrotation Xrotation Zrotation
      JOINT RightShoulder
      {
       OFFSET -13.519700 0.000000 0.000000
       CHANNELS 3 Yrotation Xrotation Zrotation
       JOINT RightElbow
       {
        OFFSET 0.000000 -29.696600 0.000000
        CHANNELS 3 Yrotation Xrotation Zrotation
        JOINT RightWrist
        {
         OFFSET 0.000000 -24.004700 0.000000
         CHANNELS 3 Yrotation Xrotation Zrotation
         End Site
         {
          OFFSET 0.000000 -17.728500 0.000000
         }
        }
       }
      }
     }
     JOINT LeftCollar
     {
      OFFSET 2.921100 9.558500 0.000000
      CHANNELS 3 Yrotation Xrotation Zrotation
      JOINT LeftShoulder
      {
       OFFSET 13.519700 0.000000 0.000000
       CHANNELS 3 Yrotation Xrotation Zrotation
       JOINT LeftElbow
       {
        OFFSET 0.000000 -29.696600 0.000000
        CHANNELS 3 Yrotation Xrotation Zrotation
        JOINT LeftWrist
        {
         OFFSET 0.000000 -24.004700 0.000000
         CHANNELS 3 Yrotation Xrotation Zrotation
         End Site
         {
          OFFSET 0.000000 -17.728500 0.000000
         }
        }
       }
      }
     }
    }
   }
  }
 }
 JOINT RightHip
 {
  OFFSET -7.771700 -0.012900 -0.001300
  CHANNELS 3 Yrotation Xrotation Zrotation
  JOINT RightKnee
  {
   OFFSET 0.000000 -40.869800 0.001200
   CHANNELS 3 Yrotation Xrotation Zrotation
   JOINT RightAnkle
   {
    OFFSET 0.000000 -39.717900 0.002100
    CHANNELS 3 Yrotation Xrotation Zrotation
    JOINT RightToe
    {
     OFFSET 0.000000 -4.965400 11.033500
     CHANNELS 3 Yrotation Xrotation Zrotation
     End Site
     {
      OFFSET 0.000000 -1.423100 5.872300
     }
    }
   }
  }
 }
 JOINT LeftHip
 {
  OFFSET 7.771700 -0.012900 -0.001300
  CHANNELS 3 Yrotation Xrotation Zrotation
  JOINT LeftKnee
  {
   OFFSET 0.000000 -40.869800 0.001200
   CHANNELS 3 Yrotation Xrotation Zrotation
   JOINT LeftAnkle
   {
    OFFSET 0.000000 -39.717900 0.002100
    CHANNELS 3 Yrotation Xrotation Zrotation
    JOINT LeftToe
    {
     OFFSET 0.000000 -4.965400 11.033500
     CHANNELS 3 Yrotation Xrotation Zrotation
     End Site
     {
      OFFSET 0.000000 -1.423100 5.872300
     }
    }
   }
  }
 }
}
MOTION
Frames: 13
Frame Time: 0.008333
-29.765025 50.255856 26.910939 161.051870 -11.977359 0.303177 3.895672 7.986151 1.351071 0.208421 0.424822 0.021992 0.337394 0.748717 0.049745 3.573042 7.511842 0.664450 3.919523 21.684814 1.481794 6.711985 4.469638 1.561358 1.991232 5.964080 0.035395 -11.578982 -10.382176 -11.035114 -106.403540 -64.081946 146.483831 -2.890163 -1.065260 -34.902697 -3.445093 3.272068 0.911712 17.417642 -1.446777 3.124926 62.206886 -71.149442 -93.323316 5.063610 1.729208 19.608205 2.751373 -69.222752 -2.236845 -128.763387 81.835838 -129.096017 -4.756034 -15.370926 1.872739 -0.186805 0.672180 -0.092762 -3.671467 -72.134428 25.792584 113.294999 79.379652 109.825386 -15.927374 -21.920079 0.551517 -0.298928 -0.868365 -0.125110
-29.767069 50.256658 26.913304 161.054252 -11.976807 0.300026 3.885077 7.988672 1.356369 0.207892 0.425377 0.021921 0.336726 0.749277 0.050794 3.560429 7.517571 0.670169 3.841673 21.708445 1.490603 6.560495 4.511831 1.602257 1.986200 5.950282 0.021500 -11.576669 -10.377444 -11.033914 -106.387890 -64.073466 146.484876 -2.885994 -1.061642 -34.902148 -3.431521 3.265753 0.916624 17.450816 -1.426004 3.117494 62.211813 -71.140491 -93.340853 5.068134 1.727797 19.609234 2.743021 -69.223048 -2.230621 -128.765978 81.843497 -129.097767 -4.758007 -15.366512 1.869916 -0.190876 0.671743 -0.090536 -3.640940 -72.140794 25.769323 113.263927 79.380277 109.807938 -15.964224 -21.913454 0.550663 -0.300307 -0.859814 -0.120018
-29.768903 50.257347 26.916635 161.043303 -11.971103 0.296757 3.886630 7.984740 1.365200 0.201951 0.429229 0.024848 0.347641 0.745595 0.045356 3.531858 7.532535 0.690069 3.763417 21.726398 1.483942 6.398153 4.558016 1.641874 1.979192 5.919727 -0.004761 -11.568193 -10.371932 -11.036234 -106.357247 -64.060341 146.482147 -2.877346 -1.055970 -34.906554 -3.409596 3.250237 0.909079 17.496719 -1.393372 3.119981 62.273601 -71.132700 -93.438308 5.069436 1.726527 19.609265 2.736259 -69.228780 -2.214921 -128.726018 81.851447 -129.056452 -4.752947 -15.360561 1.865965 -0.188178 0.671786 -0.090694 -3.635850 -72.148470 25.778172 113.247586 79.376202 109.796282 -15.977757 -21.913633 0.549424 -0.268072 -0.852965 -0.115810
-29.770302 50.258387 26.918474 161.033301 -11.974676 0.293838 3.885008 7.989116 1.373666 0.201601 0.429553 0.025210 0.355326 0.746112 0.043108 3.526426 7.534355 0.693029 3.662555 21.755868 1.498349 6.225026 4.607790 1.681918 1.984311 5.915210 -0.012997 -11.591592 -10.380189 -11.032543 -106.347482 -64.052131 146.489250 -2.859943 -1.085252 -34.914972 -3.405750 3.247469 0.911247 17.514857 -1.375285 3.121261 62.263760 -71.122131 -93.430867 5.074796 1.718737 19.617172 2.733514 -69.224368 -2.201550 -128.701051 81.856749 -129.033600 -4.741929 -15.357858 1.865412 -0.198686 0.673608 -0.091817 -3.626607 -72.146155 25.780253 113.247294 79.375223 109.799847 -15.969743 -21.919300 0.545978 -0.226307 -0.846384 -0.109714
-29.769967 50.259429 26.920376 161.022985 -11.980720 0.281445 3.890607 7.994698 1.389820 0.191893 0.429421 0.028290 0.356339 0.746605 0.045091 3.529126 7.536275 0.692089 3.557941 21.785524 1.509862 6.039805 4.659302 1.724846 1.979623 5.906249 -0.023075 -11.584061 -10.376224 -11.033414 -106.373795 -64.050717 146.514701 -2.864616 -1.087427 -34.911434 -3.401292 3.245075 0.913072 17.532248 -1.356526 3.121780 62.264012 -71.119756 -93.430171 5.088276 1.732712 19.656992 2.707142 -69.217308 -2.161833 -128.647316 81.858248 -128.979729 -4.725235 -15.355955 1.860478 -0.208913 0.675055 -0.090344 -3.613545 -72.144067 25.776852 113.225971 79.372015 109.790067 -15.920304 -21.936944 0.537051 -0.252489 -0.830144 -0.113502
-29.770603 50.260504 26.920830 161.005647 -11.992176 0.279793 3.902283 8.006628 1.395977 0.186831 0.426000 0.030247 0.355183 0.751384 0.045013 3.527152 7.539046 0.697613 3.449653 21.810835 1.515967 5.843396 4.712928 1.769783 1.972768 5.884953 -0.035288 -11.588854 -10.369843 -11.036772 -106.455286 -64.045396 146.591719 -2.895538 -1.068147 -34.894722 -3.402722 3.240334 0.923379 17.552713 -1.342666 3.106199 62.243415 -71.119974 -93.405786 5.085886 1.724825 19.657309 2.714598 -69.206141 -2.145971 -128.590382 81.854208 -128.925898 -4.717816 -15.351040 1.864507 -0.218844 0.670598 -0.093932 -3.589773 -72.131971 25.768714 113.244056 79.379090 109.817832 -15.906243 -21.956923 0.533908 -0.244180 -0.817796 -0.112927
-29.772793 50.261179 26.921099 160.999054 -12.000282 0.286862 3.896128 8.012386 1.391788 0.188046 0.423424 0.030103 0.353461 0.754533 0.045797 3.510359 7.536940 0.706696 3.348351 21.843761 1.514687 5.638040 4.767983 1.816256 1.986618 5.876669 -0.050234 -11.603745 -10.393206 -11.031982 -106.428308 -64.059335 146.578204 -2.890220 -1.080392 -34.880267 -3.389956 3.245470 0.924007 17.573329 -1.331607 3.093821 62.236056 -71.135553 -93.378093 5.096761 1.722931 19.640408 2.728900 -69.197941 -2.152825 -128.568216 81.854833 -128.907704 -4.720162 -15.353701 1.865524 -0.217909 0.673177 -0.094679 -3.545071 -72.125002 25.720304 113.252924 79.384266 109.839745 -15.905603 -21.974666 0.542625 -0.276501 -0.814494 -0.126976
-29.772001 50.261654 26.921231 160.982680 -12.013245 0.282071 3.904682 8.017861 1.403277 0.191147 0.427462 0.027455 0.349772 0.750910 0.048894 3.505662 7.540483 0.707451 3.231348 21.874647 1.522482 5.424162 4.823631 1.863513 1.985209 5.864418 -0.056281 -11.593473 -10.401773 -11.030133 -106.409771 -64.071804 146.556420 -2.867593 -1.094803 -34.880904 -3.402666 3.248477 0.955046 17.605254 -1.306941 3.065176 62.271737 -71.141928 -93.409383 5.087172 1.731507 19.673860 2.690730 -69.187629 -2.094192 -128.514852 81.849850 -128.863770 -4.723473 -15.345670 1.858187 -0.212208 0.666884 -0.089594 -3.550702 -72.112022 25.738547 113.288562 79.388993 109.881669 -15.895773 -21.984787 0.542376 -0.281623 -0.811987 -0.131627
-29.771021 50.261612 26.921410 160.973666 -12.024137 0.278066 3.901520 8.022941 1.407889 0.197386 0.430399 0.027627 0.343188 0.748396 0.049159 3.507007 7.540753 0.712568 3.108747 21.907331 1.529050 5.200650 4.882693 1.910086 1.982613 5.853026 -0.063969 -11.577541 -10.412383 -11.031090 -106.443465 -64.087133 146.569528 -2.838985 -1.093660 -34.902550 -3.407649 3.254895 0.966410 17.634337 -1.289409 3.058048 62.316667 -71.144801 -93.461064 5.090463 1.735001 19.680590 2.677405 -69.178515 -2.068232 -128.502965 81.847342 -128.853005 -4.723667 -15.343869 1.857255 -0.213175 0.664064 -0.090869 -3.559416 -72.101937 25.751988 113.307025 79.394042 109.906228 -15.892170 -21.988297 0.540716 -0.242622 -0.817720 -0.127092
-29.770332 50.260982 26.921694 160.974354 -12.031213 0.277547 3.895947 8.024296 1.409925 0.190142 0.418946 0.030969 0.349670 0.760441 0.046521 3.500448 7.536887 0.716858 2.981739 21.942830 1.533925 4.969617 4.947132 1.954797 1.981760 5.845012 -0.074229 -11.560571 -10.415911 -11.035113 -106.491860 -64.097266 146.595414 -2.860431 -1.077477 -34.905972 -3.405021 3.264174 0.966176 17.648034 -1.282762 3.053662 62.341486 -71.146651 -93.490273 5.093234 1.735846 19.685176 2.671373 -69.174109 -2.061354 -128.544927 81.850867 -128.889971 -4.739857 -15.343271 1.849616 -0.202967 0.660807 -0.087692 -3.565249 -72.095301 25.746188 113.310560 79.394587 109.913062 -15.873224 -21.989163 0.538048 -0.269290 -0.823582 -0.131693
-29.768533 50.260368 26.919381 160.974803 -12.052409 0.280271 3.888722 8.034672 1.409346 0.188368 0.417396 0.033700 0.343847 0.751902 0.049512 3.506943 7.552837 0.714245 2.846066 21.973161 1.541214 4.734214 5.014074 1.997021 1.979143 5.837142 -0.081164 -11.549622 -10.409011 -11.037581 -106.541835 -64.098163 146.633493 -2.869450 -1.063218 -34.914337 -3.407119 3.269241 0.968881 17.663136 -1.277565 3.050326 62.377719 -71.142411 -93.537987 5.092307 1.742403 19.691638 2.666648 -69.157765 -2.054128 -128.591568 81.842367 -128.933673 -4.754591 -15.342207 1.840678 -0.187646 0.652180 -0.081363 -3.560684 -72.072356 25.735403 113.324373 79.398659 109.933367 -15.890059 -21.992254 0.542799 -0.305535 -0.829416 -0.136805
-29.768044 50.258897 26.917989 160.976086 -12.062262 0.292925 3.873081 8.025944 1.402915 0.191988 0.423243 0.029775 0.343160 0.751866 0.049768 3.508925 7.561125 0.715505 2.706341 22.002176 1.544985 4.495356 5.080974 2.037102 1.981930 5.838571 -0.087327 -11.531084 -10.436124 -11.043552 -106.536750 -64.100652 146.610397 -2.868359 -1.050737 -34.944082 -3.425297 3.269903 0.988282 17.692694 -1.266013 3.031025 62.408812 -71.134933 -93.578464 5.090176 1.746858 19.696696 2.693534 -69.149666 -2.084604 -128.621540 81.839197 -128.963566 -4.754046 -15.349453 1.839044 -0.187459 0.654307 -0.081556 -3.554512 -72.059914 25.719420 113.326381 79.396974 109.932063 -15.912906 -21.976547 0.554400 -0.287384 -0.844770 -0.145424
-29.764487 50.256930 26.917104 160.979338 -12.071683 0.291216 3.865929 8.028931 1.405357 0.188186 0.413664 0.031048 0.340247 0.748593 0.050765 3.501712 7.568131 0.716842 2.575756 22.035852 1.545775 4.251680 5.147575 2.075927 1.994609 5.831827 -0.092854 -11.510489 -10.487412 -11.068670 -106.411758 -64.101093 146.467707 -2.860857 -1.063121 -34.970874 -3.426395 3.277316 0.999888 17.711011 -1.260079 3.015936 62.410456 -71.129838 -93.581485 5.089193 1.734281 19.685832 2.684050 -69.141912 -2.079886 -128.667814 81.837518 -129.004368 -4.748965 -15.358776 1.836598 -0.189212 0.655696 -0.085641 -3.577253 -72.049217 25.740585 113.328226 79.399138 109.933745 -15.926045 -21.970141 0.552000 -0.275551 -0.849368 -0.141970
